<svg width="25" height="25" viewBox="0 0 25 25" fill="none" xmlns="http://www.w3.org/2000/svg">
<path d="M12.5049 6.8855C9.39941 6.8855 6.89453 9.39038 6.89453 12.4958C6.89453 15.6013 9.39941 18.1062 12.5049 18.1062C15.6104 18.1062 18.1152 15.6013 18.1152 12.4958C18.1152 9.39038 15.6104 6.8855 12.5049 6.8855ZM12.5049 16.1433C10.498 16.1433 8.85742 14.5076 8.85742 12.4958C8.85742 10.4841 10.4932 8.84839 12.5049 8.84839C14.5166 8.84839 16.1523 10.4841 16.1523 12.4958C16.1523 14.5076 14.5117 16.1433 12.5049 16.1433ZM19.6533 6.65601C19.6533 7.38354 19.0674 7.9646 18.3447 7.9646C17.6172 7.9646 17.0361 7.37866 17.0361 6.65601C17.0361 5.93335 17.6221 5.34741 18.3447 5.34741C19.0674 5.34741 19.6533 5.93335 19.6533 6.65601ZM23.3691 7.98413C23.2861 6.2312 22.8857 4.67847 21.6016 3.39917C20.3223 2.11987 18.7695 1.71948 17.0166 1.63159C15.21 1.52905 9.79492 1.52905 7.98828 1.63159C6.24023 1.7146 4.6875 2.11499 3.40332 3.39429C2.11914 4.67358 1.72363 6.22632 1.63574 7.97925C1.5332 9.78589 1.5332 15.2009 1.63574 17.0076C1.71875 18.7605 2.11914 20.3132 3.40332 21.5925C4.6875 22.8718 6.23535 23.2722 7.98828 23.3601C9.79492 23.4626 15.21 23.4626 17.0166 23.3601C18.7695 23.2771 20.3223 22.8767 21.6016 21.5925C22.8809 20.3132 23.2812 18.7605 23.3691 17.0076C23.4717 15.2009 23.4717 9.79077 23.3691 7.98413ZM21.0352 18.946C20.6543 19.9031 19.917 20.6404 18.9551 21.0261C17.5146 21.5974 14.0967 21.4656 12.5049 21.4656C10.9131 21.4656 7.49023 21.5925 6.05469 21.0261C5.09766 20.6453 4.36035 19.908 3.97461 18.946C3.40332 17.5056 3.53516 14.0876 3.53516 12.4958C3.53516 10.9041 3.4082 7.4812 3.97461 6.04565C4.35547 5.08862 5.09277 4.35132 6.05469 3.96558C7.49512 3.39429 10.9131 3.52612 12.5049 3.52612C14.0967 3.52612 17.5195 3.39917 18.9551 3.96558C19.9121 4.34644 20.6494 5.08374 21.0352 6.04565C21.6064 7.48608 21.4746 10.9041 21.4746 12.4958C21.4746 14.0876 21.6064 17.5105 21.0352 18.946Z" fill="white" fill-opacity="0.5"/>
</svg>
