<svg width="25" height="25" viewBox="0 0 25 25" fill="none" xmlns="http://www.w3.org/2000/svg">
<path d="M23.8566 6.77378C23.584 5.74731 22.7808 4.93889 21.761 4.66454C19.9124 4.16602 12.5001 4.16602 12.5001 4.16602C12.5001 4.16602 5.08773 4.16602 3.23917 4.66454C2.21933 4.93893 1.41612 5.74731 1.14351 6.77378C0.648193 8.63433 0.648193 12.5162 0.648193 12.5162C0.648193 12.5162 0.648193 16.398 1.14351 18.2586C1.41612 19.2851 2.21933 20.0598 3.23917 20.3342C5.08773 20.8327 12.5001 20.8327 12.5001 20.8327C12.5001 20.8327 19.9124 20.8327 21.761 20.3342C22.7808 20.0598 23.584 19.2851 23.8566 18.2586C24.3519 16.398 24.3519 12.5162 24.3519 12.5162C24.3519 12.5162 24.3519 8.63433 23.8566 6.77378ZM10.0758 16.0406V8.99175L16.2711 12.5163L10.0758 16.0406Z" fill="white" fill-opacity="0.5"/>
</svg>
