<svg width="25" height="25" viewBox="0 0 25 25" fill="none" xmlns="http://www.w3.org/2000/svg">
<g id="instagram">
<path id="Vector" d="M12.5046 6.8855C9.39917 6.8855 6.89429 9.39038 6.89429 12.4958C6.89429 15.6013 9.39917 18.1062 12.5046 18.1062C15.6101 18.1062 18.115 15.6013 18.115 12.4958C18.115 9.39038 15.6101 6.8855 12.5046 6.8855ZM12.5046 16.1433C10.4978 16.1433 8.85718 14.5076 8.85718 12.4958C8.85718 10.4841 10.4929 8.84839 12.5046 8.84839C14.5164 8.84839 16.1521 10.4841 16.1521 12.4958C16.1521 14.5076 14.5115 16.1433 12.5046 16.1433ZM19.6531 6.65601C19.6531 7.38354 19.0671 7.9646 18.3445 7.9646C17.6169 7.9646 17.0359 7.37866 17.0359 6.65601C17.0359 5.93335 17.6218 5.34741 18.3445 5.34741C19.0671 5.34741 19.6531 5.93335 19.6531 6.65601ZM23.3689 7.98413C23.2859 6.2312 22.8855 4.67847 21.6013 3.39917C20.322 2.11987 18.7693 1.71948 17.0164 1.63159C15.2097 1.52905 9.79468 1.52905 7.98804 1.63159C6.23999 1.7146 4.68726 2.11499 3.40308 3.39429C2.1189 4.67358 1.72339 6.22632 1.6355 7.97925C1.53296 9.78589 1.53296 15.2009 1.6355 17.0076C1.71851 18.7605 2.1189 20.3132 3.40308 21.5925C4.68726 22.8718 6.23511 23.2722 7.98804 23.3601C9.79468 23.4626 15.2097 23.4626 17.0164 23.3601C18.7693 23.2771 20.322 22.8767 21.6013 21.5925C22.8806 20.3132 23.281 18.7605 23.3689 17.0076C23.4714 15.2009 23.4714 9.79077 23.3689 7.98413ZM21.0349 18.946C20.6541 19.9031 19.9167 20.6404 18.9548 21.0261C17.5144 21.5974 14.0964 21.4656 12.5046 21.4656C10.9128 21.4656 7.48999 21.5925 6.05444 21.0261C5.09741 20.6453 4.36011 19.908 3.97437 18.946C3.40308 17.5056 3.53491 14.0876 3.53491 12.4958C3.53491 10.9041 3.40796 7.4812 3.97437 6.04565C4.35522 5.08862 5.09253 4.35132 6.05444 3.96558C7.49487 3.39429 10.9128 3.52612 12.5046 3.52612C14.0964 3.52612 17.5193 3.39917 18.9548 3.96558C19.9119 4.34644 20.6492 5.08374 21.0349 6.04565C21.6062 7.48608 21.4744 10.9041 21.4744 12.4958C21.4744 14.0876 21.6062 17.5105 21.0349 18.946Z" fill="white" fill-opacity="0.5"/>
</g>
</svg>
