<svg width="25" height="25" viewBox="0 0 25 25" fill="none" xmlns="http://www.w3.org/2000/svg">
<g id="youtube">
<path id="Vector" d="M23.8564 6.77378C23.5838 5.74731 22.7805 4.93889 21.7607 4.66454C19.9122 4.16602 12.4998 4.16602 12.4998 4.16602C12.4998 4.16602 5.08749 4.16602 3.23892 4.66454C2.21909 4.93893 1.41587 5.74731 1.14326 6.77378C0.647949 8.63433 0.647949 12.5162 0.647949 12.5162C0.647949 12.5162 0.647949 16.398 1.14326 18.2586C1.41587 19.2851 2.21909 20.0598 3.23892 20.3342C5.08749 20.8327 12.4998 20.8327 12.4998 20.8327C12.4998 20.8327 19.9121 20.8327 21.7607 20.3342C22.7805 20.0598 23.5838 19.2851 23.8564 18.2586C24.3517 16.398 24.3517 12.5162 24.3517 12.5162C24.3517 12.5162 24.3517 8.63433 23.8564 6.77378ZM10.0756 16.0406V8.99175L16.2708 12.5163L10.0756 16.0406Z" fill="white" fill-opacity="0.5"/>
</g>
</svg>
